<svg width="23" height="23" viewBox="0 0 23 23" fill="none" xmlns="http://www.w3.org/2000/svg">
<path d="M4.57031 22.3633H18.7852C21.2461 22.3633 22.4648 21.1445 22.4648 18.7305V4.42188C22.4648 2.00781 21.2461 0.789062 18.7852 0.789062H4.57031C2.12109 0.789062 0.890625 1.99609 0.890625 4.42188V18.7305C0.890625 21.1562 2.12109 22.3633 4.57031 22.3633ZM2.77734 18.6367V4.51562C2.77734 3.29688 3.42188 2.67578 4.59375 2.67578H18.7617C19.9219 2.67578 20.5781 3.29688 20.5781 4.51562V18.6367C20.5781 19.5508 20.2031 20.1367 19.5234 20.3594C18.5039 17.4883 15.4102 15.4844 11.6836 15.4844C7.94531 15.4844 4.86328 17.4883 3.84375 20.3711C3.15234 20.1367 2.77734 19.5508 2.77734 18.6367ZM11.6836 13.5273C13.9219 13.5508 15.6797 11.6406 15.6797 9.13281C15.6797 6.77734 13.9219 4.83203 11.6836 4.83203C9.44531 4.83203 7.66406 6.77734 7.67578 9.13281C7.6875 11.6406 9.44531 13.5039 11.6836 13.5273Z" fill="#212121"/>
</svg>
